<svg xmlns="http://www.w3.org/2000/svg" width="256" height="256"><path fill="#1976D2" fill-opacity=".016" fill-rule="evenodd" d="M0 128.004v128.004l128.25-.254 128.25-.254.254-127.75L257.008 0H0zm.485.496c0 70.4.119 99.053.265 63.672s.146-92.98 0-128S.485 58.1.485 128.5"/><path fill="#1976D2" fill-opacity=".462" fill-rule="evenodd" d="M34.327 2.398C18.672 8.216 6.941 20.272 1.815 35.809.118 40.952 0 46.925 0 127.499c0 83.65.059 86.359 2.005 92.015 5.739 16.681 17.79 28.356 35.028 33.936l7.876 2.55h83.559c50.677 0 84.242-.373 85.296-.947.955-.52 4.07-1.672 6.923-2.559 14.816-4.607 28.21-18.833 32.836-34.876 1.194-4.142 1.955-5.473 2.571-4.5.504.796.852-35.945.82-86.618-.03-48.4-.425-87.1-.877-86-.919 2.235-.789 2.464-3.519-6.187-4.529-14.352-17.929-27.418-33.327-32.498C214.042.116 208.143.003 127.095.052L40.5.104zM.479 127.5C.478 175.9.6 195.846.75 171.825c.149-24.021.149-63.621 0-88S.479 79.1.479 127.5m89.792-47.378C80.497 92.289 70.025 105.515 67 109.513s-6.775 8.872-8.332 10.831c-5.041 6.337-4.348 6.891 13.299 10.647 5.207 1.108 10.079 2.626 10.827 3.374 1.146 1.147.781 4.143-2.329 19.1-3.285 15.801-3.524 17.905-2.182 19.246 2.161 2.161 3.289 1.208 13.271-11.211 13.918-17.317 29.268-36.306 36.14-44.711 3.468-4.24 6.306-8.348 6.306-9.127 0-2.536-2.472-3.58-13.531-5.714C107.99 99.54 106 98.71 106 95.916c0-1.108 1.617-9.433 3.593-18.501 2.865-13.149 3.346-16.783 2.377-17.951-.668-.805-1.825-1.464-2.571-1.464s-9.353 9.955-19.128 22.122"/><path fill="#1976D2" fill-opacity=".163" fill-rule="evenodd" d="M38.265 1.542c-2.88.775-7.605 2.609-10.5 4.075C21.008 9.038 9.046 20.991 5.633 27.733-.112 39.081-.005 37.164.058 127.46c.064 92.595-.097 90.241 6.968 101.972 6.921 11.494 21.779 22.394 32.962 24.182 2.231.357 4.298 1.04 4.593 1.517.703 1.138 165.135 1.138 165.838 0 .295-.477 2.362-1.16 4.593-1.517 16.553-2.647 35.958-22.064 38.607-38.632.365-2.284 1.275-4.388 2.023-4.675 1.13-.434 1.346-14.64 1.288-84.664-.039-46.279-.432-83.243-.873-82.143-.669 1.666-1 1.249-1.986-2.5-2.282-8.679-3.21-10.904-6.949-16.678-7.286-11.25-18.634-19.657-30.815-22.83-8.279-2.157-170.019-2.111-178.042.05M.478 127c0 46.475.122 65.488.272 42.25.149-23.237.149-61.262 0-84.5C.6 61.513.478 80.525.478 127m64.058-76.058C63.411 52.761 55 94.378 55 98.121c0 3.522.261 3.857 3.75 4.826 2.063.573 4.65 1.051 5.75 1.063 5.154.054 5.038 1.602-.648 8.659-10.844 13.458-10.89 14.226-1.023 17.185C68.054 131.421 79.782 134 81.684 134c.821 0 .092 8.168-1.249 14-.822 3.575-2.24 10.45-3.151 15.278-1.508 7.988-1.515 8.92-.082 10.353.904.904 2.373 1.321 3.45.979 1.031-.327 8.844-9.223 17.362-19.768s17.961-22.165 20.986-25.82 8.2-10.095 11.5-14.31c6.702-8.562 8.046-8.062 4.61 1.715-1.849 5.262-1.871 5.718-.303 6.199.931.286 2.48.941 3.443 1.455 1.27.679 1.75.56 1.75-.434 0-1.496 4.552-1.125 6.669.543.773.609 1.525.309 2.22-.885.578-.993 1.064-1.355 1.08-.805.017.58 2.18.851 5.154.645 3.56-.246 4.916-.017 4.442.75-.376.608-.206 1.105.376 1.105s1.059-.609 1.059-1.353c0-1.028 1.261-1.236 5.25-.863 2.887.27 5.4.879 5.583 1.353.518 1.34 3.167 1.016 3.166-.387 0-.93 2.572-1.2 10.054-1.054 9.582.187 10.156.079 12.217-2.292 4.372-5.028 6.798-14.005 6.865-25.404.054-9.203-.278-11.346-2.682-17.348-6.079-15.172-20.347-23.53-45.427-26.611-10.698-1.314-90.686-1.4-91.49-.099m48.543 16.641c.048 1.165.285 1.402.604.605.289-.722.253-1.585-.079-1.917s-.568.258-.525 1.312m-1.441 4.917c-.316.825-.139 1.5.393 1.5.533 0 .969-.675.969-1.5s-.177-1.5-.393-1.5-.652.675-.969 1.5m-1.05 5.632c-3.072 14.291-3.673 17.921-3.118 18.819 1.148 1.859 2.266 1.117 1.821-1.21-.238-1.242.231-6.079 1.042-10.75.81-4.67 1.314-8.657 1.119-8.859s-.584.698-.864 2"/><path fill="#1976D2" fill-opacity=".708" fill-rule="evenodd" d="M41.789 1.029c-2.591.437-8.161 2.453-12.376 4.481C14.907 12.487 3.738 27.269 1.005 43.108.245 47.516-.004 74.953.204 131.5l.302 82 2.786 6.877c4.724 11.659 12.331 20.974 21.533 26.366C30.638 250.15 41.335 254 44.986 254c1.593 0 3.174.45 3.514 1 .852 1.379 158.148 1.379 159 0 .34-.55 1.758-1 3.152-1 4.87 0 16.968-5.125 23.163-9.812 3.408-2.578 8.193-7.369 10.633-10.647 4.617-6.202 9.565-18.017 9.557-22.822-.003-1.554.657-3.036 1.495-3.357 1.316-.506 1.498-10.505 1.485-81.719-.01-50.473-.367-80.587-.947-79.671-1.067 1.688-.994 1.85-2.925-6.472-4.332-18.669-21.542-34.979-40.547-38.424C205.59-.189 49.27-.232 41.789 1.029M.477 127c0 44.825.123 63.163.273 40.75s.15-59.087 0-81.5S.477 82.175.477 127M64.26 50.187c-1.021 1.23-1.97 5.215-8.707 36.555-3.423 15.92-3.585 15.605 9.697 18.811 1.513.365 2.75.856 2.75 1.09s-2.925 3.962-6.5 8.283c-7.954 9.614-8.469 12.467-2.542 14.063 2.177.586 4.192 1.445 4.479 1.909.287.465-.609 6.19-1.991 12.723C53.028 183.408 50 198.776 50 201.713c0 3.629 2.976 4.287 19.378 4.287 14.696 0 15.638-.118 17.948-2.25 1.34-1.237 9.114-10.575 17.274-20.75s16.828-20.975 19.261-24c2.434-3.025 4.924-5.778 5.532-6.118.609-.34 5.166-.866 10.128-1.17 43.656-2.673 71.774-31.267 65.038-66.14-3.56-18.437-15.111-28.608-38.399-33.813-8.961-2.003-12.959-2.186-55.235-2.522-36.747-.292-45.787-.108-46.665.95"/></svg>